<svg xmlns="http://www.w3.org/2000/svg" width="24.515" height="15.59" viewBox="0 0 24.515 15.59">
  <g id="Group_142" data-name="Group 142" transform="translate(0)">
    <path id="Path_250" data-name="Path 250" d="M1036.272,498.661l-2.127,2.015a4.438,4.438,0,0,0-1.2-.812,4.751,4.751,0,0,0-4.325.28,5.023,5.023,0,0,0-1.763,1.805,4.941,4.941,0,0,0,0,4.926,4.907,4.907,0,0,0,1.763,1.791,4.648,4.648,0,0,0,2.421.658,4.734,4.734,0,0,0,2.464-.616,3.942,3.942,0,0,0,1.4-1.371,3.462,3.462,0,0,0,.56-1.371h-4.422V503.28h7.361a5.386,5.386,0,0,1,.112,1.315,8.093,8.093,0,0,1-.937,3.932,6.844,6.844,0,0,1-2.631,2.7,8.047,8.047,0,0,1-7.822-.07,7.774,7.774,0,0,1-2.827-2.813,7.673,7.673,0,0,1-1.063-3.946,7.53,7.53,0,0,1,1.063-3.918,7.773,7.773,0,0,1,2.827-2.813,7.609,7.609,0,0,1,3.918-1.049A7.467,7.467,0,0,1,1036.272,498.661Zm9.235,2.407v2.211h2.238v2.238h-2.238v2.211h-2.239v-2.211h-2.211v-2.238h2.211v-2.211h2.239Z" transform="translate(-1023.23 -496.617)" fill="#fff"/>
  </g>
</svg>
