<svg xmlns="http://www.w3.org/2000/svg" width="27.88" height="27.88" viewBox="0 0 27.88 27.88">
  <path id="ic_help_outline_24px" d="M14.321,24.661a2.082,2.082,0,0,0,2.738,0,2.082,2.082,0,0,0,0-2.738,2.082,2.082,0,0,0-2.738,0A2.082,2.082,0,0,0,14.321,24.661ZM15.69,2A13.69,13.69,0,1,0,29.38,15.69,13.695,13.695,0,0,0,15.69,2Zm0,24.642A10.952,10.952,0,1,1,26.642,15.69,10.966,10.966,0,0,1,15.69,26.642Zm0-19.166a5.474,5.474,0,0,0-5.476,5.476,3.361,3.361,0,0,0,1.43.44,2.6,2.6,0,0,0,1.307-.44,2.738,2.738,0,0,1,5.476,0c0,2.738-4.107,2.4-4.107,6.845a2.727,2.727,0,0,0,1.369.5,2.727,2.727,0,0,0,1.369-.5c0-3.08,4.107-3.422,4.107-6.845A5.474,5.474,0,0,0,15.69,7.476Z" transform="translate(-1.75 -1.75)" fill="#fff" stroke="#73a1c2" stroke-width="0.5"/>
</svg>
