<svg xmlns="http://www.w3.org/2000/svg" width="23.489" height="30.514" viewBox="0 0 23.489 30.514">
  <path id="ic_directions_run_24px" d="M16.981,6.855a2.688,2.688,0,1,0-2.688-2.688A2.7,2.7,0,0,0,16.981,6.855ZM12.008,24.822l1.478-5.2,2.688,1.847a3.411,3.411,0,0,1,.635,1.25,4.135,4.135,0,0,1,0,1.489l-.5,6.165a2.889,2.889,0,0,0,1.444.622A1.99,1.99,0,0,0,19,30.373l.379-7.162a7.506,7.506,0,0,0,0-1.506A3.468,3.468,0,0,0,19,20.732L16.174,17.85l.806-4.275a9.84,9.84,0,0,0,7.391,3.36A2.086,2.086,0,0,0,24.9,15.7a3.191,3.191,0,0,0-.525-1.45,6.611,6.611,0,0,1-5.779-3.225l-1.344-2.15a2.772,2.772,0,0,0-2.285-1.344c-.4,0-.672.134-1.075.134L6.9,10.618v6.316a3.561,3.561,0,0,0,1.5.513,1.887,1.887,0,0,0,1.187-.513V12.365l2.419-.941L9.858,22.31,3.273,20.966a2.151,2.151,0,0,0-.834,1.146,2.939,2.939,0,0,0,.3,1.541l7.122,1.592a2.556,2.556,0,0,0,1.251.211A1.65,1.65,0,0,0,12.008,24.822Z" transform="translate(-1.908 -0.98)" fill="#fff" stroke="#73a1c2" stroke-width="1"/>
</svg>
