<svg xmlns="http://www.w3.org/2000/svg" width="24.12" height="29.403" viewBox="0 0 24.12 29.403">
  <g id="Path_86" data-name="Path 86" transform="translate(-0.557 -4.863) rotate(24)" fill="#fff">
    <path d="M 13.20675373077393 24.90286254882812 C 13.87404251098633 24.17459297180176 14.82855892181396 23.06102561950684 15.79073619842529 21.69382476806641 C 18.12502670288086 18.37694358825684 19.30861663818359 15.30640411376953 19.30861663818359 12.56751441955566 C 19.30861663818359 9.192584037780762 18.05293655395508 5.87455415725708 16.99955558776855 3.685374021530151 C 16.43215942382812 2.506184577941895 15.86822891235352 1.528540134429932 15.43994617462158 0.8371689319610596 C 16.73236465454102 1.242616415023804 18.83620262145996 2.029908895492554 20.85397720336914 3.342664003372192 C 22.71384620666504 4.552693843841553 24.1384162902832 5.966984272003174 25.08809661865234 7.54625415802002 C 26.26507568359375 9.503523826599121 26.71567726135254 11.73412418365479 26.4273567199707 14.17610454559326 C 26.13844680786133 16.62312316894531 25.21072578430176 18.70890426635742 23.66996574401855 20.37550354003906 C 22.42908668518066 21.71773338317871 20.78578567504883 22.79966354370117 18.78571701049805 23.59124374389648 C 16.62202644348145 24.44758415222168 14.49788856506348 24.77656745910645 13.20675373077393 24.90286254882812 Z" stroke="none"/>
    <path d="M 16.55832099914551 1.752681732177734 C 16.84171867370605 2.259532928466797 17.14567184448242 2.835882186889648 17.45010566711426 3.468574523925781 C 19.01509666442871 6.721004486083984 19.80861663818359 9.782323837280273 19.80861663818359 12.56751441955566 C 19.80861663818359 15.41145420074463 18.59437561035156 18.57880401611328 16.19962692260742 21.9815845489502 C 15.59353065490723 22.84281158447266 14.98952865600586 23.60587310791016 14.45604705810547 24.23813247680664 C 15.64251518249512 24.04897880554199 17.12688255310059 23.71291160583496 18.62771606445312 23.11601448059082 C 22.97273635864258 21.38795471191406 25.42985534667969 18.36041450500488 25.93080520629883 14.1174840927124 C 26.4300651550293 9.888833999633789 24.63768768310547 6.409513473510742 20.60342597961426 3.77618408203125 C 19.19315147399902 2.855634689331055 17.7365550994873 2.198074340820312 16.55832099914551 1.752681732177734 M 14.28938674926758 3.814697265625e-06 C 14.28938674926758 3.814697265625e-06 28.24903678894043 3.011253356933594 26.92390632629395 14.23473453521729 C 25.59878540039062 25.45819473266602 11.95507621765137 25.48142433166504 11.95507621765137 25.48142433166504 C 11.95507621765137 25.48142433166504 18.80861663818359 18.91843414306641 18.80861663818359 12.56751441955566 C 18.80861663818359 6.216604232788086 14.28938674926758 3.814697265625e-06 14.28938674926758 3.814697265625e-06 Z" stroke="none" fill="#73a1c2"/>
  </g>
</svg>
