<svg xmlns="http://www.w3.org/2000/svg" width="16.826" height="14.683" viewBox="0 0 16.826 14.683">
  <path id="Subtraction_6" data-name="Subtraction 6" d="M12.049,14.683h0v0c.169-.3,1.644-2.93,1.47-3.6-.182-.707-3.517-2.486-3.551-2.5a10.839,10.839,0,0,1,3.733.852c.477.176.926.342,1.373.46a1.009,1.009,0,0,0,.256.037.462.462,0,0,0,.4-.193c.387-.55-.167-2.123-.173-2.139A8.784,8.784,0,0,0,13.9,6.052a2.393,2.393,0,0,0-1.467-.373,11.649,11.649,0,0,0-3.175.609h0l.012.006c.264.157,1.126.687,1.14.934a.137.137,0,0,1-.041.1c-.1.109-.405.164-.895.164-.169,0-.365-.007-.582-.02A4.258,4.258,0,0,1,7.255,6.8s-.383.027-.976.027A17.733,17.733,0,0,1,3.4,6.6,6.61,6.61,0,0,1,0,4.622a.031.031,0,0,1,0-.007A3.442,3.442,0,0,1,.227,4,10.119,10.119,0,0,1,3.917.936,9.379,9.379,0,0,1,7.774.218,12.612,12.612,0,0,1,9.366.31,11.72,11.72,0,0,1,11.876,0h.078c1.477,0,1.49.457,1.494.608,0,.254-.965.638-1.013.657h0l.008,0a15.271,15.271,0,0,1,3.393,3.246,5.342,5.342,0,0,1,.978,2.922A9.154,9.154,0,0,1,16.676,9.5l0,.025c-.006.031-.01.059-.013.082a6,6,0,0,1-1.627,2.764A21.455,21.455,0,0,1,12.049,14.683ZM4.409,2.208a.781.781,0,0,0-.8.737.725.725,0,0,0,.209.519.815.815,0,0,0,.581.247H4.41a.772.772,0,0,0,.8-.737.782.782,0,0,0-.789-.766Z" fill="#0394fc"/>
</svg>
