<svg xmlns="http://www.w3.org/2000/svg" width="36" height="30" viewBox="0 0 36 30">
  <g id="Group_203" data-name="Group 203" transform="translate(-52 -734)">
    <g id="Polygon_4" data-name="Polygon 4" transform="translate(64 754)" fill="#fff">
      <path d="M 11.11690044403076 9.5 L 0.8830999732017517 9.5 L 6 0.971833348274231 L 11.11690044403076 9.5 Z" stroke="none"/>
      <path d="M 6 1.943650245666504 L 1.766189575195312 9 L 10.23381042480469 9 L 6 1.943650245666504 M 6 0 L 12 10 L 0 10 L 6 0 Z" stroke="none" fill="#73a1c2"/>
    </g>
    <g id="Polygon_8" data-name="Polygon 8" transform="translate(70 744)" fill="#fff">
      <path d="M 11.11690044403076 9.5 L 0.8830999732017517 9.5 L 6 0.971833348274231 L 11.11690044403076 9.5 Z" stroke="none"/>
      <path d="M 6 1.943650245666504 L 1.766189575195312 9 L 10.23381042480469 9 L 6 1.943650245666504 M 6 0 L 12 10 L 0 10 L 6 0 Z" stroke="none" fill="#73a1c2"/>
    </g>
    <g id="Polygon_5" data-name="Polygon 5" transform="translate(76 754)" fill="#fff">
      <path d="M 11.11690044403076 9.5 L 0.8830999732017517 9.5 L 6 0.971833348274231 L 11.11690044403076 9.5 Z" stroke="none"/>
      <path d="M 6 1.943650245666504 L 1.766189575195312 9 L 10.23381042480469 9 L 6 1.943650245666504 M 6 0 L 12 10 L 0 10 L 6 0 Z" stroke="none" fill="#73a1c2"/>
    </g>
    <g id="Polygon_9" data-name="Polygon 9" transform="translate(64 734)" fill="#fff">
      <path d="M 11.11690044403076 9.5 L 0.8830999732017517 9.5 L 6 0.971833348274231 L 11.11690044403076 9.5 Z" stroke="none"/>
      <path d="M 6 1.943650245666504 L 1.766189575195312 9 L 10.23381042480469 9 L 6 1.943650245666504 M 6 0 L 12 10 L 0 10 L 6 0 Z" stroke="none" fill="#73a1c2"/>
    </g>
    <g id="Polygon_6" data-name="Polygon 6" transform="translate(52 754)" fill="#fff">
      <path d="M 11.11690044403076 9.5 L 0.8830999732017517 9.5 L 6 0.971833348274231 L 11.11690044403076 9.5 Z" stroke="none"/>
      <path d="M 6 1.943650245666504 L 1.766189575195312 9 L 10.23381042480469 9 L 6 1.943650245666504 M 6 0 L 12 10 L 0 10 L 6 0 Z" stroke="none" fill="#73a1c2"/>
    </g>
    <g id="Polygon_7" data-name="Polygon 7" transform="translate(58 744)" fill="#fff">
      <path d="M 11.11690044403076 9.5 L 0.8830999732017517 9.5 L 6 0.971833348274231 L 11.11690044403076 9.5 Z" stroke="none"/>
      <path d="M 6 1.943650245666504 L 1.766189575195312 9 L 10.23381042480469 9 L 6 1.943650245666504 M 6 0 L 12 10 L 0 10 L 6 0 Z" stroke="none" fill="#73a1c2"/>
    </g>
  </g>
</svg>
