<svg xmlns="http://www.w3.org/2000/svg" width="24.516" height="19.899" viewBox="0 0 24.516 19.899">
  <g id="Group_195" data-name="Group 195" transform="translate(0)">
    <path id="Path_303" data-name="Path 303" d="M973.227,1145.831v.644a14.548,14.548,0,0,1-.923,5.037,15.019,15.019,0,0,1-2.743,4.59,13.606,13.606,0,0,1-4.478,3.359,14.607,14.607,0,0,1-6.129,1.287,14.332,14.332,0,0,1-4.086-.588,13.9,13.9,0,0,1-3.638-1.651q.588.057,1.2.056a9.989,9.989,0,0,0,3.33-.56,10.435,10.435,0,0,0,2.911-1.567,5.025,5.025,0,0,1-2.911-1.021A4.847,4.847,0,0,1,954,1152.94a5,5,0,0,0,.924.084,5.188,5.188,0,0,0,1.315-.168,4.858,4.858,0,0,1-2.043-.937,4.99,4.99,0,0,1-1.441-1.764,5.24,5.24,0,0,1-.546-2.225v-.084a4.713,4.713,0,0,0,2.295.644,5.063,5.063,0,0,1-1.637-1.805,4.917,4.917,0,0,1-.6-2.393,5,5,0,0,1,.672-2.519,14.351,14.351,0,0,0,10.355,5.261,5.82,5.82,0,0,1-.112-1.147,4.9,4.9,0,0,1,.672-2.519,5.071,5.071,0,0,1,1.833-1.833,4.843,4.843,0,0,1,2.5-.686,4.981,4.981,0,0,1,3.666,1.6,9.774,9.774,0,0,0,3.19-1.231,4.866,4.866,0,0,1-.854,1.609,5.165,5.165,0,0,1-1.357,1.189,10.216,10.216,0,0,0,2.911-.812A10.52,10.52,0,0,1,973.227,1145.831Z" transform="translate(-951.229 -1140.849)" fill="#fff"/>
  </g>
</svg>
